# File created by Blade
# Date/Time:  Wed Apr 08 17:31:39 2015
# Frame Rate: 120.000 fps
#------------------------------------------------------
:FULLY-SPECIFIED
:DEGREES
1030
root 2.152577 36.357522 -0.180170 -515.334948 -83.142017 542.015549
Spine -27.659160 0.589322 -4.787392
Head 7.826680 12.688424 3.880221
LeftShoulder -6.408338 11.316538 31.193473
LeftArm 11.948149 -36.215303 -31.888461
LeftForeArm 20.671050 -0.000000 1.712615
LeftHand -9.079450 -0.000000 -15.173716
LeftHandThumb1 -26.253704 0.000000 33.147579
RightShoulder -22.893736 -40.315049 -15.733459
RightArm 47.603305 45.688837 46.549794
RightForeArm -2.555596 -0.000000 -1.798141
RightHand -1.212311 0.000000 17.613551
RightHandThumb1 -24.326973 -0.000000 -32.862282
LeftUpLeg -27.706013 16.055799 0.821141
LeftLeg 11.431750 -0.000000 -0.000000
LeftFoot -8.877782 9.750531 -15.222258
LeftToeBase 7.327938 -0.000000 -0.000000
RightUpLeg -28.074941 -7.333146 -4.031370
RightLeg 9.412546 -0.000000 -0.000000
RightFoot -9.769608 -7.541999 21.388707
RightToeBase 13.803814 -0.000000 -0.000000
1031
root 2.146489 36.356353 -0.175128 -515.332546 -83.124900 542.027586
Spine -27.648340 0.594811 -4.763629
Head 7.905665 12.699660 3.845371
LeftShoulder -6.407889 11.336854 31.184850
LeftArm 11.972313 -36.278090 -31.966489
LeftForeArm 20.531758 -0.000000 1.702279
LeftHand -9.042389 -0.000000 -15.073681
LeftHandThumb1 -26.253704 0.000000 33.147579
RightShoulder -22.876385 -40.323045 -15.761916
RightArm 47.648737 45.681914 46.550262
RightForeArm -2.466298 0.000000 -1.823769
RightHand -1.226791 -0.000000 17.475879
RightHandThumb1 -24.326973 -0.000000 -32.862282
LeftUpLeg -27.706258 16.039725 0.818569
LeftLeg 11.434709 -0.000000 -0.000000
LeftFoot -8.915833 9.774938 -15.231755
LeftToeBase 7.362531 -0.000000 -0.000000
RightUpLeg -28.074105 -7.331752 -4.042560
RightLeg 9.394099 -0.000000 -0.000000
RightFoot -9.765486 -7.531309 21.410520
RightToeBase 13.821959 -0.000000 -0.000000
1032
root 2.140353 36.355778 -0.170320 -515.284863 -83.114924 542.003386
Spine -27.643140 0.599548 -4.749106
Head 7.956251 12.722562 3.820066
LeftShoulder -6.395008 11.325190 31.193409
LeftArm 11.969661 -36.311420 -32.043558
LeftForeArm 20.422482 -0.000000 1.700086
LeftHand -9.065627 -0.000000 -14.970320
LeftHandThumb1 -26.253704 0.000000 33.147579
RightShoulder -22.861783 -40.323345 -15.792667
RightArm 47.666311 45.688533 46.551998
RightForeArm -2.498811 -0.000000 -1.833466
RightHand -1.218284 0.000000 17.372334
RightHandThumb1 -24.326973 -0.000000 -32.862282
LeftUpLeg -27.719200 16.029052 0.804317
LeftLeg 11.434995 -0.000000 -0.000000
LeftFoot -8.929303 9.780727 -15.230282
LeftToeBase 7.373923 -0.000000 -0.000000
RightUpLeg -28.078791 -7.331438 -4.056286
RightLeg 9.373862 -0.000000 -0.000000
RightFoot -9.761021 -7.526897 21.429654
RightToeBase 13.841802 -0.000000 -0.000000
1033
root 2.134420 36.355487 -0.165471 -515.209952 -83.107058 541.956848
Spine -27.645318 0.591178 -4.735790
Head 8.038708 12.774313 3.799620
LeftShoulder -6.405605 11.350052 31.182415
LeftArm 12.022144 -36.355624 -32.108671
LeftForeArm 20.304230 -0.000000 1.658550
LeftHand -9.050452 -0.000000 -14.862912
LeftHandThumb1 -26.253704 0.000000 33.147579
RightShoulder -22.871283 -40.379592 -15.781078
RightArm 47.716986 45.695302 46.530175
RightForeArm -2.473880 -0.000000 -1.849967
RightHand -1.209840 0.000000 17.234091
RightHandThumb1 -24.326973 -0.000000 -32.862282
LeftUpLeg -27.730686 15.994740 0.795331
LeftLeg 11.425120 -0.000000 -0.000000
LeftFoot -8.947166 9.826376 -15.233813
LeftToeBase 7.345373 -0.000000 -0.000000
RightUpLeg -28.092518 -7.347622 -4.065572
RightLeg 9.359916 -0.000000 -0.000000
RightFoot -9.758193 -7.510764 21.469275
RightToeBase 13.851023 -0.000000 -0.000000
1034
root 2.128803 36.355202 -0.161001 -515.126190 -83.109034 541.889423
Spine -27.627935 0.579458 -4.715690
Head 8.109332 12.829854 3.778720
LeftShoulder -6.399824 11.341297 31.159903
LeftArm 12.013614 -36.345125 -32.122733
LeftForeArm 20.194741 -0.000000 1.654732
LeftHand -9.104599 -0.000000 -14.787081
LeftHandThumb1 -26.253704 0.000000 33.147579
RightShoulder -22.891694 -40.424765 -15.784626
RightArm 47.767777 45.679962 46.526549
RightForeArm -2.423700 -0.000000 -1.844406
RightHand -1.215772 0.000000 17.070092
RightHandThumb1 -24.326973 -0.000000 -32.862282
LeftUpLeg -27.730252 15.969610 0.782343
LeftLeg 11.407439 -0.000000 -0.000000
LeftFoot -8.954297 9.855721 -15.216135
LeftToeBase 7.340610 -0.000000 -0.000000
RightUpLeg -28.085108 -7.348644 -4.082701
RightLeg 9.331934 -0.000000 -0.000000
RightFoot -9.764879 -7.528253 21.482603
RightToeBase 13.874459 -0.000000 -0.000000
1035
root 2.123177 36.354968 -0.156722 -515.019337 -83.099003 541.802312
Spine -27.617913 0.571476 -4.704573
Head 8.165408 12.895059 3.762269
LeftShoulder -6.452795 11.477926 31.066111
LeftArm 12.184770 -36.442872 -32.144255
LeftForeArm 20.036666 -0.000000 1.598434
LeftHand -9.147955 -0.000000 -14.690430
LeftHandThumb1 -26.253704 0.000000 33.147579
RightShoulder -22.925711 -40.475446 -15.764008
RightArm 47.820052 45.662824 46.496788
RightForeArm -2.369082 0.000000 -1.839505
RightHand -1.158690 -0.000000 16.898013
RightHandThumb1 -24.326973 -0.000000 -32.862282
LeftUpLeg -27.734471 15.970954 0.754427
LeftLeg 11.389057 -0.000000 -0.000000
LeftFoot -8.945669 9.866560 -15.196441
LeftToeBase 7.336103 -0.000000 -0.000000
RightUpLeg -28.101857 -7.359516 -4.096569
RightLeg 9.336655 -0.000000 -0.000000
RightFoot -9.769893 -7.521159 21.500321
RightToeBase 13.862261 -0.000000 -0.000000
1036
root 2.118299 36.355154 -0.150884 -514.844845 -83.090749 541.656436
Spine -27.615717 0.556044 -4.693603
Head 8.217354 12.914678 3.729384
LeftShoulder -6.474997 11.526542 31.021150
LeftArm 12.232413 -36.490787 -32.170515
LeftForeArm 19.903507 -0.000000 1.593353
LeftHand -9.164708 0.000000 -14.552801
LeftHandThumb1 -26.253704 0.000000 33.147579
RightShoulder -22.925400 -40.478364 -15.773176
RightArm 47.812628 45.640771 46.432045
RightForeArm -2.255465 -0.000000 -1.847962
RightHand -1.111187 -0.000000 16.735503
RightHandThumb1 -24.326973 -0.000000 -32.862282
LeftUpLeg -27.742504 15.948744 0.720360
LeftLeg 11.360474 -0.000000 -0.000000
LeftFoot -8.954102 9.911322 -15.182231
LeftToeBase 7.352045 -0.000000 -0.000000
RightUpLeg -28.129871 -7.364244 -4.119882
RightLeg 9.343158 -0.000000 -0.000000
RightFoot -9.777041 -7.532261 21.503792
RightToeBase 13.878860 -0.000000 -0.000000
1037
root 2.112019 36.354966 -0.144600 -514.758090 -83.088619 541.582074
Spine -27.597514 0.544424 -4.668763
Head 8.293752 12.928367 3.718401
LeftShoulder -6.473152 11.521462 30.983923
LeftArm 12.213872 -36.498449 -32.171627
LeftForeArm 19.745634 -0.000000 1.609737
LeftHand -9.212472 -0.000000 -14.406437
LeftHandThumb1 -26.253704 0.000000 33.147579
RightShoulder -22.925387 -40.471255 -15.782497
RightArm 47.835315 45.667759 46.423999
RightForeArm -2.228972 -0.000000 -1.837886
RightHand -1.065441 -0.000000 16.584453
RightHandThumb1 -24.326973 -0.000000 -32.862282
LeftUpLeg -27.732651 15.937323 0.697402
LeftLeg 11.332362 -0.000000 -0.000000
LeftFoot -8.960699 9.937984 -15.153087
LeftToeBase 7.367247 -0.000000 -0.000000
RightUpLeg -28.133971 -7.368055 -4.138482
RightLeg 9.342532 -0.000000 -0.000000
RightFoot -9.783629 -7.544843 21.512232
RightToeBase 13.883132 -0.000000 -0.000000
1038
root 2.106552 36.355136 -0.139186 -514.626663 -83.091109 541.461825
Spine -27.573939 0.510928 -4.643706
Head 8.344835 12.994858 3.696335
LeftShoulder -6.419713 11.398735 31.018510
LeftArm 11.992609 -36.387276 -32.137428
LeftForeArm 19.542053 -0.000000 1.663736
LeftHand -9.313558 0.000000 -14.232037
LeftHandThumb1 -26.253704 0.000000 33.147579
RightShoulder -22.917966 -40.447695 -15.804244
RightArm 47.898246 45.717225 46.477078
RightForeArm -2.217356 -0.000000 -1.819889
RightHand -1.005863 0.000000 16.461682
RightHandThumb1 -24.326973 -0.000000 -32.862282
LeftUpLeg -27.726534 15.902080 0.679736
LeftLeg 11.316093 -0.000000 -0.000000
LeftFoot -8.972289 9.977069 -15.145241
LeftToeBase 7.376704 -0.000000 -0.000000
RightUpLeg -28.148137 -7.373310 -4.159472
RightLeg 9.364494 -0.000000 -0.000000
RightFoot -9.799227 -7.562609 21.509332
RightToeBase 13.875221 -0.000000 -0.000000
1039
root 2.101316 36.354875 -0.135236 -514.508819 -83.089107 541.346621
Spine -27.540654 0.487446 -4.628738
Head 8.383248 13.048059 3.682704
LeftShoulder -6.405540 11.381494 31.015607
LeftArm 11.929812 -36.348946 -32.139827
LeftForeArm 19.274559 0.000000 1.668256
LeftHand -9.348146 -0.000000 -13.971090
LeftHandThumb1 -26.253704 0.000000 33.147579
RightShoulder -22.896530 -40.443356 -15.830987
RightArm 47.931093 45.769460 46.539597
RightForeArm -2.140619 -0.000000 -1.789589
RightHand -1.006714 -0.000000 16.290168
RightHandThumb1 -24.326973 -0.000000 -32.862282
LeftUpLeg -27.717028 15.889954 0.658013
LeftLeg 11.302500 -0.000000 -0.000000
LeftFoot -8.975011 10.005060 -15.114706
LeftToeBase 7.414384 -0.000000 -0.000000
RightUpLeg -28.157754 -7.387728 -4.173021
RightLeg 9.388519 -0.000000 -0.000000
RightFoot -9.813706 -7.561454 21.513709
RightToeBase 13.856125 -0.000000 -0.000000
1040
root 2.095595 36.354524 -0.130951 -514.424488 -83.091480 541.266173
Spine -27.510962 0.474505 -4.614406
Head 8.411788 13.049829 3.673696
LeftShoulder -6.390921 11.392071 31.005017
LeftArm 11.907983 -36.331143 -32.156275
LeftForeArm 19.052545 -0.000000 1.675011
LeftHand -9.372057 -0.000000 -13.729079
LeftHandThumb1 -26.253704 0.000000 33.147579
RightShoulder -22.890415 -40.414328 -15.854065
RightArm 47.921589 45.792272 46.543114
RightForeArm -2.059807 -0.000000 -1.772878
RightHand -0.947108 0.000000 16.231842
RightHandThumb1 -24.326973 -0.000000 -32.862282
LeftUpLeg -27.709357 15.877919 0.642778
LeftLeg 11.295490 -0.000000 -0.000000
LeftFoot -8.986953 10.016256 -15.118378
LeftToeBase 7.403573 -0.000000 -0.000000
RightUpLeg -28.167214 -7.409543 -4.182118
RightLeg 9.415162 -0.000000 -0.000000
RightFoot -9.825867 -7.552688 21.504749
RightToeBase 13.868300 -0.000000 -0.000000
